<mxfile host="app.diagrams.net" modified="2024-07-12T10:30:00.000Z" agent="5.0 (Windows NT 10.0; Win64; x64) AppleWebKit/537.36 (KHTML, like Gecko) Chrome/91.0.4472.124 Safari/537.36" etag="abcdef123456" version="20.2.3" type="device">
  <diagram id="1234567890abcdef" name="订单状态机流程图">
    <mxGraphModel dx="800" dy="600" grid="1" gridSize="10" guides="1" tooltips="1" connect="1" arrows="1" fold="1" page="1" pageScale="1" pageWidth="850" pageHeight="1100" math="0" shadow="0">
      <root>
        <mxCell id="0"/>
        <mxCell id="1" parent="0"/>
        <mxCell id="2" value="待支付" style="shape=rounded;whiteSpace=wrap;html=1;" vertex="1" parent="1">
          <mxGeometry x="100" y="100" width="120" height="80" as="geometry"/>
        </mxCell>
        <mxCell id="3" value="已支付" style="shape=rounded;whiteSpace=wrap;html=1;" vertex="1" parent="1">
          <mxGeometry x="300" y="100" width="120" height="80" as="geometry"/>
        </mxCell>
        <mxCell id="4" value="已发货" style="shape=rounded;whiteSpace=wrap;html=1;" vertex="1" parent="1">
          <mxGeometry x="500" y="100" width="120" height="80" as="geometry"/>
        </mxCell>
        <mxCell id="5" value="已完成" style="shape=rounded;whiteSpace=wrap;html=1;" vertex="1" parent="1">
          <mxGeometry x="700" y="100" width="120" height="80" as="geometry"/>
        </mxCell>
        <mxCell id="6" value="支付成功" style="edgeStyle=orthogonalEdgeStyle;rounded=1;exitX=1;exitY=0.5;entryX=0;entryY=0.5;html=1;" edge="1" parent="1" source="2" target="3">
          <mxGeometry relative="1" as="geometry">
            <mxPoint x="210" y="140" as="controlPoint"/>
          </mxGeometry>
        </mxCell>
        <mxCell id="7" value="开始发货" style="edgeStyle=orthogonalEdgeStyle;rounded=1;exitX=1;exitY=0.5;entryX=0;entryY=0.5;html=1;" edge="1" parent="1" source="3" target="4">
          <mxGeometry relative="1" as="geometry">
            <mxPoint x="410" y="140" as="controlPoint"/>
          </mxGeometry>
        </mxCell>
        <mxCell id="8" value="送达客户" style="edgeStyle=orthogonalEdgeStyle;rounded=1;exitX=1;exitY=0.5;entryX=0;entryY=0.5;html=1;" edge="1" parent="1" source="4" target="5">
          <mxGeometry relative="1" as="geometry">
            <mxPoint x="610" y="140" as="controlPoint"/>
          </mxGeometry>
        </mxCell>
      </root>
    </mxGraphModel>
  </diagram>
</mxfile>